# xmcd
#
# Track frame offsets: 
#        150
#        27745
#        44490
#        63315
#        81786
#        97871
#        114185
#        130831
#        154274
#        180295
#        205348
#        224176
#        245602
#        264355
#        288052
#        310001
#        331239
#
# Disc length: 4651 seconds
#
# Revision: 1
# Processed by: cddbd v1.5.2PL0 Copyright (c) Steve Scherf et al.
# Submitted via: ExactAudioCopyFreeDBPlugin 1.0
#
DISCID=ed122911
DTITLE=Zucchero - Sugar Fornaciari - Live in Italy [CD+DVD] CD1
DYEAR=2008
DGENRE=Blues
TTITLE0=Dune mosse
TTITLE1=Occhi
TTITLE2=Quanti anni ho
TTITLE3=Bacco perbacco
TTITLE4=Un kilo
TTITLE5=Cuba libre
TTITLE6=L'amore è nell'aria
TTITLE7=Il volo
TTITLE8=Diamante
TTITLE9=Così Celeste
TTITLE10=Baila (Sexy Thing)
TTITLE11=Overdose (d'amore)
TTITLE12=Il mare
TTITLE13=It's All Right (La Promessa)
TTITLE14=Indaco Dagli Occhi Del Cielo
TTITLE15=Nel Così Blu
TTITLE16=E' delicato
EXTD=YEAR: 2008
EXTT0=
EXTT1=
EXTT2=
EXTT3=
EXTT4=
EXTT5=
EXTT6=
EXTT7=
EXTT8=
EXTT9=
EXTT10=
EXTT11=
EXTT12=
EXTT13=
EXTT14=
EXTT15=
EXTT16=
PLAYORDER=
